<svg version="1" xmlns="http://www.w3.org/2000/svg" width="933.333" height="933.333" viewBox="0 0 700.000000 700.000000"><path d="M0 350v350h700V0H0v350zM192.2 95.6c32.1 16.9 58.8 30.7 59.4 30.7.6 0 27.7-14 60.3-31.2 32.6-17.2 59.5-31 59.7-30.8.4.4-20.5 124.4-22.1 131.3-.4 1.7 8.6 10.9 48.1 49.4 26.7 26 48.3 47.4 48 47.7-.2.3-15 2.6-32.7 5.2l-32.3 4.7 34.7 18.2c19.1 10 35.2 18.2 35.7 18.2s27.5-14 60-31.1 59.3-30.9 59.7-30.6c.3.3-4.5 29.9-10.6 65.7-6.2 35.8-11.1 65.9-10.9 66.8.2 1 22 22.9 48.6 48.7 26.5 25.9 47.9 47.1 47.5 47.2-.5.1-30.7 4.6-67.3 9.9-36.6 5.3-66.6 9.7-66.7 9.8-.1 0-13.7 27.5-30.2 61L451 647.3l-17.8-35.9c-9.8-19.8-23.4-47.3-30.2-61.2-6.8-13.8-12.8-25.2-13.3-25.2-1.3 0-131.9-19-133.1-19.3-.5-.2 21-21.6 47.8-47.6 26.7-26 48.6-47.7 48.6-48.1 0-1-17.1-100.4-17.3-100.7-.1-.1-5.5.6-11.9 1.5l-11.6 1.6-30.3 61-30.2 61.1-30.2-61-30.1-61-65-9.3c-35.7-5.2-66-9.7-67.2-10.1-2.2-.6 2.5-5.4 46.3-48 44-42.9 48.5-47.6 48.1-50-.3-1.4-5.3-30.3-11.1-64.1s-10.8-62.8-11.1-64.4c-.5-2.4-.3-2.8 1-2.3.8.3 27.8 14.4 59.8 31.3z"/></svg>